<svg width="374" height="151" viewBox="0 0 374 151" fill="none" xmlns="http://www.w3.org/2000/svg">
    <circle cx="188" cy="45" r="45" fill="url(#1747idad4a)"/>
    <path fill-rule="evenodd" clip-rule="evenodd" d="M224.002 72.002A44.802 44.802 0 0 1 197 81c-24.853 0-45-20.147-45-45a44.801 44.801 0 0 1 8.998-27.002C150.069 17.208 143 30.278 143 45c0 24.853 20.147 45 45 45 14.722 0 27.792-7.07 36.002-17.998z" fill="url(#7i68w8ghvb)"/>
    <circle cx="188" cy="40" r="25" fill="#fff"/>
    <path fill-rule="evenodd" clip-rule="evenodd" d="M207.486 55.664A24.886 24.886 0 0 1 195 59c-13.807 0-25-11.193-25-25 0-5.93 2.065-11.378 5.514-15.664C168.034 22.656 163 30.741 163 40c0 13.807 11.193 25 25 25 7.877 0 14.903-3.643 19.486-9.336z" fill="#000" fill-opacity=".05"/>
    <circle cx="193.5" cy="34.5" r="9.5" fill="#2D2D2D"/>
    <circle cx="198" cy="30" r="4" fill="#fff"/>
    <path d="M184 73s1.112 3 4.5 3 4.5-3 4.5-3" stroke="#fff" stroke-width="2.294" stroke-linecap="round" stroke-linejoin="bevel"/>
    <path d="M12.174 124.137c1.464 3.782 2.582 5.748 3.355 5.896.312.065 1.028.098 2.146.098l.765.025h.814c.74 0 1.315.008 1.726.025 2.993.032 4.712.222 5.156.567.477.378.797 1.324.962 2.837.131 1.43.09 2.335-.124 2.713-.213.345-2.146.946-5.796 1.801-3.75.871-6.06 1.208-6.932 1.011-1.085-.263-2.828-1.036-5.23-2.319-2.581-1.397-4.16-2.491-4.735-3.28-.592-.823-1.324-3.75-2.196-8.782-.871-4.933-1.217-7.86-1.036-8.781.296-1.497 1.743-3.536 4.342-6.118 2.466-2.466 4.333-3.881 5.6-4.243.87-.246 3.453.157 7.745 1.209 4.21 1.036 6.503 1.768 6.882 2.196.312.361.304 1.307-.025 2.836-.345 1.497-.707 2.352-1.085 2.566-.132.065-.938.139-2.418.222l-.493.024-.543.025a40.69 40.69 0 0 1-1.134.074l-2.442.173c-4.391.378-6.726 1.011-7.006 1.899-.345 1.069.222 3.511 1.702 7.326zm36.409-.395c1.414-.92 2.179-1.644 2.294-2.17.131-.675.024-2.229-.32-4.662-.38-2.615-.815-3.988-1.308-4.12-.707-.197-1.743.23-3.108 1.283-1.365 1.052-2.097 1.957-2.196 2.713-.098.839.058 2.294.469 4.366.428 2.188.855 3.388 1.283 3.602.493.246 1.455-.091 2.886-1.012zm1.43-21.337c2.697.28 4.49.724 5.378 1.332.904.625 2.17 3.224 3.799 7.795 1.595 4.44 2.376 7.367 2.343 8.782-.033 1.365-1.102 4.16-3.207 8.387-2.22 4.456-3.905 6.808-5.056 7.054-1.349.296-4.087-.065-8.215-1.085-4.242-1.069-6.71-2.089-7.4-3.059-.723-1.036-1.48-3.905-2.27-8.609-.772-4.736-.978-7.72-.616-8.954.395-1.315 1.867-3.544 4.416-6.684 2.565-3.191 4.292-4.86 5.18-5.008 1.282-.23 3.165-.214 5.648.049zm31.13 26.764c1.661-.542 2.714-1.069 3.158-1.579.246-.296.123-1.011-.37-2.146-.444-1.019-1.094-2.17-1.949-3.453-.839-1.266-1.628-2.294-2.368-3.083-.822-.872-1.381-1.225-1.677-1.061-.346.197-.518 2.072-.518 5.624 0 3.552.156 5.501.468 5.846.411.444 1.497.395 3.256-.148zm-7.45-21.978c1.415-.938 2.426-1.439 3.035-1.505.608-.049 1.891.773 3.848 2.467 1.825 1.562 3.815 3.519 5.97 5.871 5.295 5.739 7.868 9.439 7.72 11.1-.115 1.217-1.167 3.79-3.157 7.721-1.974 3.93-3.29 6.043-3.947 6.339-.839.395-3.93.354-9.275-.123-5.492-.477-8.444-1.077-8.855-1.801-.395-.691-.206-5.443.567-14.258.757-8.649 1.291-13.221 1.603-13.714.297-.51 1.127-1.209 2.492-2.097zm41.294-4.243c6.331.609 9.981 1.258 10.952 1.949.427.312.723 1.661.888 4.045.164 2.418.024 3.914-.42 4.49-.279.361-2.359.065-6.24-.888l-1.086-.272-1.06-.246a47.761 47.761 0 0 0-1.9-.444c-1.266-.28-1.973-.354-2.121-.222-.313.279-.584 1.044-.814 2.294-.198 1.184-.239 1.957-.124 2.318.083.247 1.012.576 2.788.987l1.011.222c.411.082.716.148.913.197.625.148.995.263 1.11.346.296.181.452.855.469 2.022.032 1.201-.124 2.056-.469 2.566-.082.131-.469.181-1.159.148a51.3 51.3 0 0 1-2.146-.247c-2.04-.279-3.109-.321-3.207-.123-.132.312-.239 1.044-.321 2.195-.099 1.151-.09 1.858.025 2.121.066.181 2.014.477 5.846.888 1.907.198 3.272.362 4.095.494 1.315.181 2.072.353 2.269.518.526.395.896 1.57 1.11 3.527.214 2.039.008 3.256-.617 3.651-1.019.625-4.884.863-11.593.715-6.858-.148-10.599-.69-11.224-1.628-.526-.822-.411-5.961.346-15.417.756-9.34 1.414-14.545 1.973-15.614.543-1.036 4.111-1.233 10.706-.592zm31.869 28.565c2.056.148 3.347.139 3.873-.025.362-.115.666-.592.913-1.431.23-.822.271-1.554.123-2.195-.131-.559-1.455-1.061-3.971-1.505-2.483-.46-3.799-.46-3.947 0-.033.132-.09.37-.173.715-.082.428-.148.847-.197 1.259-.181 1.167-.214 1.948-.099 2.343.115.395 1.275.674 3.478.839zm-.986-18.081c-.477.065-.773.131-.888.197-.263.131-.592.724-.987 1.776-.411 1.102-.493 1.776-.247 2.023.263.279 1.341.312 3.232.098 1.891-.23 2.984-.509 3.28-.838.181-.198.264-.707.247-1.53-.016-.871-.148-1.414-.395-1.628-.312-.263-1.2-.353-2.664-.271-.542.033-1.069.09-1.578.173zm11.692 5.377c-1.233 1.233-1.612 2.097-1.135 2.59.247.28.748.625 1.505 1.036l.493.271.518.296c.411.231.757.436 1.036.617 1.694 1.069 2.467 2.171 2.319 3.305-.23 1.892-.855 4.26-1.875 7.105-1.2 3.321-2.294 5.089-3.28 5.303-.576.115-1.933.132-4.071.049a102.943 102.943 0 0 1-6.931-.493c-6.298-.674-9.735-1.554-10.311-2.639-.625-1.184-.658-6.249-.098-15.195.559-8.913 1.192-13.773 1.899-14.579.806-.904 4.292-.953 10.459-.148 6.068.79 9.398 1.604 9.99 2.443.477.707.937 1.85 1.381 3.428.461 1.645.625 2.821.494 3.528-.099.444-.403.962-.913 1.554-.181.213-.419.468-.715.764l-.395.395-.37.37zm25.407-5.476c-1.628-.115-2.557-.049-2.787.197-.231.247-.387 1.151-.469 2.714-.099 1.545-.025 2.368.222 2.466.115.05.477.091 1.085.124.625.049 1.275.065 1.949.049 1.825-.016 2.845-.173 3.059-.469.213-.312.263-1.052.148-2.22-.099-1.101-.263-1.841-.494-2.22-.181-.312-1.085-.526-2.713-.641zm-9.398 23.31c-2.138-.855-3.396-1.619-3.774-2.294-.362-.658.024-5.163 1.159-13.517 1.151-8.404 2.031-12.885 2.639-13.444.856-.822 3.816-1.315 8.881-1.48 4.999-.164 7.852.066 8.559.691.822.756 1.867 2.343 3.133 4.761 1.414 2.664 2.047 4.563 1.899 5.698-.148 1.052-1.151 2.672-3.009 4.859a51.367 51.367 0 0 1-2.072 2.294l-.814.814c-.214.214-.387.378-.518.493-.313.28.263 1.99 1.726 5.131l.42.888.419.888c.313.674.559 1.209.74 1.604.477 1.118.707 1.809.691 2.072-.082.74-1.086 1.537-3.01 2.392-1.874.839-3.198 1.16-3.971.962-.28-.082-.724-.633-1.332-1.652a50.157 50.157 0 0 1-.888-1.554l-.469-.888-.468-.888c-1.678-3.191-2.722-4.835-3.133-4.934-.461-.082-.946 1.061-1.455 3.429l-.148.691-.148.69c-.099.527-.198.954-.296 1.283-.231.888-.469 1.431-.716 1.628-.526.444-1.875.238-4.045-.617zm43.291-33.695c6.331.609 9.981 1.258 10.952 1.949.427.312.723 1.661.888 4.045.164 2.418.024 3.914-.42 4.49-.279.361-2.359.065-6.24-.888l-1.086-.272-1.06-.246a47.761 47.761 0 0 0-1.9-.444c-1.266-.28-1.973-.354-2.121-.222-.313.279-.584 1.044-.814 2.294-.198 1.184-.239 1.957-.124 2.318.083.247 1.012.576 2.788.987l1.011.222c.411.082.716.148.913.197.625.148.995.263 1.11.346.296.181.452.855.469 2.022.032 1.201-.124 2.056-.469 2.566-.082.131-.469.181-1.159.148a51.3 51.3 0 0 1-2.146-.247c-2.04-.279-3.109-.321-3.207-.123-.132.312-.239 1.044-.321 2.195-.099 1.151-.09 1.858.025 2.121.066.181 2.014.477 5.846.888 1.907.198 3.272.362 4.095.494 1.315.181 2.072.353 2.269.518.526.395.896 1.57 1.11 3.527.214 2.039.008 3.256-.617 3.651-1.019.625-4.884.863-11.593.715-6.858-.148-10.599-.69-11.224-1.628-.526-.822-.411-5.961.346-15.417.756-9.34 1.414-14.545 1.973-15.614.543-1.036 4.111-1.233 10.706-.592zm34.78 15.762c1.71.231 2.656.124 2.837-.32.181-.428.181-1.595 0-3.503-.165-1.858-.337-2.878-.518-3.059-.214-.214-.831-.222-1.85-.024-1.02.197-1.653.427-1.9.69-.296.346-.625 1.209-.986 2.59-.346 1.382-.461 2.27-.346 2.664.132.428 1.053.749 2.763.962zm1.184-16.033c4.341.296 7.014.978 8.017 2.047 1.036 1.118 2.179 6.224 3.429 15.318 1.249 9.061 1.529 14.003.838 14.825-.69.823-2.327 1.258-4.908 1.308a17.85 17.85 0 0 1-2.714-.148c-.822-.099-1.299-.214-1.431-.346-.328-.329-.698-1.891-1.11-4.686l-.098-.79-.124-.764a349.24 349.24 0 0 1-.197-1.357c-.164-.905-.312-1.423-.444-1.554-.247-.263-1.085-.403-2.516-.42-1.365 0-2.245.091-2.639.272-.198.082-.485.584-.864 1.505-.131.345-.304.805-.518 1.381l-.271.765-.296.789c-1.003 2.746-1.76 4.111-2.269 4.095l-.839-.05-1.036-.098a19.615 19.615 0 0 1-2.294-.346c-1.875-.378-2.952-.912-3.231-1.603-.395-.937.411-5.97 2.417-15.096 2.055-9.292 3.601-14.151 4.637-14.579 1.513-.608 4.333-.764 8.461-.468zm40.627 12.185c-2.122 3.371-3.075 5.328-2.862 5.871.115.296.642.995 1.579 2.097.296.362.748.896 1.357 1.603l.74.863.764.888c2.632 3.092 3.873 4.917 3.725 5.477-.148.624-1.291 1.586-3.429 2.886-2.203 1.348-3.683 1.907-4.44 1.677-.361-.099-.97-.699-1.825-1.801a44.71 44.71 0 0 1-1.184-1.628l-.641-.888-.617-.888c-1.052-1.496-1.817-2.524-2.294-3.083-.724-.839-1.168-1.118-1.332-.839-.296.477-.502 1.817-.617 4.021l-.074 1.233c-.016.494-.033.872-.049 1.135-.066.773-.14 1.274-.222 1.505-.082.246-.526.403-1.332.468-.757.066-1.645.033-2.664-.098-2.516-.296-4.095-.831-4.736-1.604-.592-.723-.469-5.87.37-15.441.822-9.341 1.43-14.332 1.825-14.973.362-.592 1.694-.814 3.996-.666 2.253.148 3.511.468 3.774.962.066.115.082.616.05 1.504 0 .264-.017.683-.05 1.258l-.049.716-.025.691c-.115 2.417.008 3.494.37 3.231.198-.132.625-.625 1.283-1.48.115-.148.263-.345.444-.592l.493-.641c.411-.543.765-1.004 1.061-1.382 1.891-2.368 3.174-3.503 3.848-3.404.625.082 1.842.847 3.651 2.294 1.874 1.53 2.746 2.598 2.614 3.207-.049.279-.444 1.011-1.184 2.195-.23.362-.6.938-1.11 1.727l-.592.937-.616.962zm26.073-11.914c6.331.609 9.982 1.258 10.952 1.949.428.312.724 1.661.888 4.045.164 2.418.025 3.914-.419 4.49-.28.361-2.36.065-6.241-.888l-1.085-.272-1.061-.246a47.783 47.783 0 0 0-1.899-.444c-1.267-.28-1.974-.354-2.122-.222-.312.279-.584 1.044-.814 2.294-.197 1.184-.238 1.957-.123 2.318.082.247 1.011.576 2.787.987l1.012.222c.411.082.715.148.912.197.625.148.995.263 1.11.346.296.181.452.855.469 2.022.033 1.201-.123 2.056-.469 2.566-.082.131-.468.181-1.159.148a51.495 51.495 0 0 1-2.146-.247c-2.039-.279-3.108-.321-3.207-.123-.131.312-.238 1.044-.321 2.195-.098 1.151-.09 1.858.025 2.121.066.181 2.015.477 5.846.888 1.908.198 3.273.362 4.095.494 1.316.181 2.072.353 2.269.518.527.395.897 1.57 1.11 3.527.214 2.039.009 3.256-.616 3.651-1.02.625-4.884.863-11.594.715-6.857-.148-10.598-.69-11.223-1.628-.527-.822-.411-5.961.345-15.417.756-9.34 1.414-14.545 1.973-15.614.543-1.036 4.112-1.233 10.706-.592zm33.646 10.385c-1.628-.115-2.557-.049-2.788.197-.23.247-.386 1.151-.468 2.714-.099 1.545-.025 2.368.222 2.466.115.05.477.091 1.085.124.625.049 1.274.065 1.949.049 1.825-.016 2.845-.173 3.058-.469.214-.312.264-1.052.148-2.22-.098-1.101-.263-1.841-.493-2.22-.181-.312-1.085-.526-2.713-.641zm-9.398 23.31c-2.138-.855-3.396-1.619-3.775-2.294-.361-.658.025-5.163 1.16-13.517 1.151-8.404 2.031-12.885 2.639-13.444.855-.822 3.815-1.315 8.88-1.48 5-.164 7.853.066 8.56.691.822.756 1.866 2.343 3.133 4.761 1.414 2.664 2.047 4.563 1.899 5.698-.148 1.052-1.151 2.672-3.009 4.859a51.367 51.367 0 0 1-2.072 2.294l-.815.814c-.213.214-.386.378-.518.493-.312.28.264 1.99 1.727 5.131l.42.888.419.888c.312.674.559 1.209.74 1.604.477 1.118.707 1.809.691 2.072-.083.74-1.086 1.537-3.01 2.392-1.875.839-3.198 1.16-3.971.962-.28-.082-.724-.633-1.332-1.652a50.157 50.157 0 0 1-.888-1.554l-.469-.888-.469-.888c-1.677-3.191-2.721-4.835-3.132-4.934-.461-.082-.946 1.061-1.456 3.429l-.148.691-.148.69a12.56 12.56 0 0 1-.296 1.283c-.23.888-.468 1.431-.715 1.628-.526.444-1.875.238-4.045-.617z" fill="#fff"/>
    <defs>
        <linearGradient id="1747idad4a" x1="233" y1="41.447" x2="143" y2="41.447" gradientUnits="userSpaceOnUse">
            <stop stop-color="#F44881"/>
            <stop offset="1" stop-color="#EC454F"/>
        </linearGradient>
        <linearGradient id="7i68w8ghvb" x1="145.5" y1="113" x2="184" y2="27" gradientUnits="userSpaceOnUse">
            <stop stop-color="#D04070"/>
            <stop offset="1" stop-color="#EC454F"/>
        </linearGradient>
    </defs>
</svg>
